# xmcd
#
# Track frame offsets:
#	150
#	17315
#	36871
#	53443
#	70911
#	88662
#	103368
#	119391
#	132913
#	149756
#	164251
#	181144
#	195528
#	208413
#	222590
#
# Disc length: 3161
#
# Revision: 2
# Processed by: cddbd v1.5.1PL0 Copyright (c) Steve Scherf et al.
# Submitted via: VisiTrax 2.9.9.209 - For more info visit www.synapsa.com
# Normalized: r1:DSETVAR1
#
DISCID=e10c570f
DTITLE=Various Artist - CDX 339 march 2004
DYEAR=2004
DGENRE=Country
TTITLE0=Chely Wright - Back of the bottom drawer
TTITLE1=Lorrie Morgan - I can't count on you
TTITLE2=Vince Gill - In these last few days
TTITLE3=Josh Gracin - I want to live
TTITLE4=Lonestar - Let's be us again
TTITLE5=Jessi Alexander - Make me stay or make me go
TTITLE6=Rodney Atkins - Someone to share it with
TTITLE7=Gene Warson - The coast of Texas
TTITLE8=Blake Shelton - When somebody knows you that well
TTITLE9=Hank Williams Jr. - Why can't we all just get a long neck?
TTITLE10=Adrienne Young - Home remedy
TTITLE11=Danny Mack - If these walls could talk
TTITLE12=Ace Crye - It's about time
TTITLE13=Lucky Shy - Music (where did it come from)
TTITLE14=Jay Teter - Cowboy ride
EXTD=
EXTT0=
EXTT1=
EXTT2=
EXTT3=
EXTT4=
EXTT5=
EXTT6=
EXTT7=
EXTT8=
EXTT9=
EXTT10=
EXTT11=
EXTT12=
EXTT13=
EXTT14=
PLAYORDER=
